Coordinates
version=1
nRows=11
nColumns=33
inDegrees=yes

Units are S.I. units (second, meters, Newtons, ...)
Angles are in degrees.

endheader
time	ground_thorax_rot_x	ground_thorax_rot_y	ground_thorax_rot_z	ground_thorax_tx	ground_thorax_ty	ground_thorax_tz	clav_prot_r	clav_elev_r	scapula_abduction_r	scapula_elevation_r	scapula_upward_rot_r	scapula_winging_r	shoulder_elv_r	plane_of_elev_r	axial_rot_r	elbow_flexion_r	pro_sup_r	wrist_flex_r	wrist_dev_r	clav_prot_l	clav_elev_l	scapula_abduction_l	scapula_elevation_l	scapula_upward_rot_l	scapula_winging_l	shoulder_elv_l	plane_of_elev_l	axial_rot_l	elbow_flexion_l	pro_sup_l	wrist_flex_l	wrist_dev_l	
10.2000	31.326944	12.138066	16.192660	-79.811253	787.616491	9.813528	-2.301661	30.454553	45.000000	29.938218	26.667215	-830.812035	-2464.739258	17.508028	-180.000000	2166.728970	-94.645145	14.347260	8.677448	-0.099588	-45.000000	-45.000000	45.000000	0.280802	-983.279351	-2445.707236	14.195296	180.000000	-718.050997	-128.067604	5.602282	-14.234520	
10.2100	31.373672	12.104883	16.194566	-79.827779	787.699722	9.969081	-2.274733	30.457301	45.000000	29.922869	26.631756	-830.749670	-2464.717876	17.501086	-180.000000	2166.756379	-95.101391	14.326647	8.694492	-0.105699	-45.000000	-45.000000	45.000000	0.310935	-983.369425	-2445.708464	14.191247	180.000000	-717.989598	-128.527968	5.653140	-14.212723	
10.2200	31.454570	12.003020	16.068869	-79.859572	787.779276	10.116085	-2.250346	30.465717	45.000000	29.900132	26.583899	-830.634858	-2464.727227	17.543092	-180.000000	2166.800799	-95.542503	14.501810	8.632656	-0.060819	-45.000000	-45.000000	45.000000	0.355718	-983.472713	-2445.756491	14.270919	180.000000	-717.931244	-128.969345	5.716868	-14.179925	
10.2300	31.516910	11.955882	16.043939	-79.925421	787.851665	10.246014	-2.231540	30.475889	45.000000	29.893521	26.547812	-830.576077	-2464.722790	17.552535	-180.000000	2166.829317	-95.937751	14.537914	8.629888	-0.055100	-45.000000	-45.000000	45.000000	0.379937	-983.521709	-2445.784718	14.289818	180.000000	-717.920300	-129.400146	5.755274	-14.166695	
10.2400	31.583118	11.927939	16.040960	-80.026906	787.915731	10.356882	-2.210378	30.487888	45.000000	29.903894	26.514344	-830.543630	-2464.719347	17.559084	-180.000000	2166.851954	-96.280010	14.536492	8.650026	-0.059074	-45.000000	-45.000000	45.000000	0.399200	-983.545203	-2445.817660	14.293358	180.000000	-717.926326	-129.804733	5.786822	-14.165364	
10.2500	31.647502	11.909482	16.046193	-80.168889	787.970241	10.446457	-2.197049	30.509153	45.000000	29.917679	26.480374	-830.519398	-2464.708021	17.560045	-180.000000	2166.865185	-96.569139	14.532593	8.661658	-0.067438	-45.000000	-45.000000	45.000000	0.414408	-983.550783	-2445.841037	14.299309	180.000000	-717.932583	-130.181493	5.811597	-14.161845	
10.2600	31.714278	11.906378	16.060803	-80.350944	788.014346	10.514108	-2.174847	30.535210	45.000000	29.947195	26.447801	-830.521987	-2464.700232	17.560170	-180.000000	2166.863759	-96.800996	14.500782	8.690795	-0.081412	-45.000000	-45.000000	45.000000	0.434833	-983.538193	-2445.861713	14.296208	180.000000	-717.943256	-130.527359	5.835409	-14.169066	
10.2700	31.777705	11.895116	16.054870	-80.571789	788.047989	10.561051	-2.164986	30.578896	45.000000	29.964721	26.412469	-830.507306	-2464.679715	17.560678	-180.000000	2166.857283	-96.988791	14.515460	8.681665	-0.089240	-45.000000	-45.000000	45.000000	0.460564	-983.521744	-2445.866300	14.316142	180.000000	-717.935153	-130.845606	5.857658	-14.161669	
10.2800	31.839296	11.901505	16.062895	-80.829420	788.070829	10.588202	-2.143623	30.628368	45.000000	29.993294	26.378399	-830.514332	-2464.659367	17.562133	-180.000000	2166.845072	-97.134240	14.490596	8.697774	-0.104803	-45.000000	-45.000000	45.000000	0.494746	-983.493357	-2445.860305	14.323168	180.000000	-717.919163	-131.142397	5.883100	-14.163195	
10.2900	31.898654	11.904266	16.062125	-81.122893	788.082817	10.597046	-2.136316	30.690977	45.000000	30.016009	26.342386	-830.499910	-2464.626069	17.560533	-180.000000	2166.841593	-97.252969	14.497966	8.686092	-0.118635	-45.000000	-45.000000	45.000000	0.532473	-983.456620	-2445.843496	14.341291	180.000000	-717.892585	-131.423798	5.905329	-14.152378	
10.3000	31.965245	11.918546	16.064933	-81.450354	788.083480	10.588617	-2.114115	30.752175	45.000000	30.061142	26.310535	-830.508369	-2464.604988	17.563644	-180.000000	2166.840124	-97.344840	14.475071	8.704323	-0.136481	-45.000000	-45.000000	45.000000	0.579942	-983.406187	-2445.833052	14.344764	180.000000	-717.869834	-131.688916	5.933483	-14.156525	
